<?xml version="1.0" encoding="UTF-8" standalone="no"?>
<!DOCTYPE svg PUBLIC "-//W3C//DTD SVG 1.1//EN" "http://www.w3.org/Graphics/SVG/1.1/DTD/svg11.dtd">
<!-- 由 Microsoft Visio, SVG Export 生成 architecture.svg 页-1 -->
<svg xmlns="http://www.w3.org/2000/svg" xmlns:xlink="http://www.w3.org/1999/xlink" xmlns:ev="http://www.w3.org/2001/xml-events"
		xmlns:v="http://schemas.microsoft.com/visio/2003/SVGExtensions/" width="12.2313in" height="8.22091in"
		viewBox="0 0 880.653 591.905" xml:space="preserve" color-interpolation-filters="sRGB" class="st28">
	<v:documentProperties v:langID="2052" v:metric="true" v:viewMarkup="false"/>

	<style type="text/css">
	<![CDATA[
		.st1 {fill:#f2f2f2;stroke:#ae9638;stroke-linecap:round;stroke-linejoin:round;stroke-width:1}
		.st2 {fill:#e0e6f5;stroke:#ae9638;stroke-linecap:round;stroke-linejoin:round;stroke-width:1}
		.st3 {fill:none;stroke:none;stroke-linecap:round;stroke-linejoin:round;stroke-width:1}
		.st4 {fill:#3c3b3e;font-family:黑体;font-size:1.5em}
		.st5 {fill:#cac2e9;stroke:#89878d;stroke-linecap:round;stroke-linejoin:round;stroke-width:1}
		.st6 {fill:#3c3b3e;font-family:Eras Light ITC;font-size:1.16666em}
		.st7 {fill:#c3dfe9;stroke:#3d8da9;stroke-linecap:round;stroke-linejoin:round;stroke-width:1}
		.st8 {fill:#cac2e9;stroke:#533da9;stroke-linecap:round;stroke-linejoin:round;stroke-width:1}
		.st9 {fill:#3c3b3e;font-family:黑体;font-size:1.16666em}
		.st10 {fill:#3c3b3e;font-family:黑体;font-size:2.50001em}
		.st11 {font-size:1em}
		.st12 {fill:#e0e7f5;stroke:#533da9;stroke-linecap:round;stroke-linejoin:round;stroke-width:1}
		.st13 {fill:#cbc3e9;stroke:#595959;stroke-linecap:round;stroke-linejoin:round;stroke-width:1}
		.st14 {font-family:Eras Light ITC;font-size:1em}
		.st15 {font-family:Times New Roman;font-size:1em}
		.st16 {fill:#3b3a3e;font-family:黑体;font-size:1.5em}
		.st17 {fill:#b89f76;stroke:#533da9;stroke-linecap:round;stroke-linejoin:round;stroke-width:1}
		.st18 {fill:#d7dfcd;stroke:#533da9;stroke-linecap:round;stroke-linejoin:round;stroke-width:1}
		.st19 {fill:#3b3a3e;font-family:黑体;font-size:1.16666em}
		.st20 {fill:#e5e1f4;stroke:#e5e1f4;stroke-linecap:round;stroke-linejoin:round;stroke-width:1}
		.st21 {fill:#d8d8d8;stroke:#533da9;stroke-linecap:round;stroke-linejoin:round;stroke-width:1}
		.st22 {fill:#cbc3e9;stroke:#ae9638;stroke-linecap:round;stroke-linejoin:round;stroke-width:1}
		.st23 {fill:#d8d8d8;stroke:#7e6bc9;stroke-linecap:round;stroke-linejoin:round;stroke-width:1}
		.st24 {fill:#3b3a3e;font-family:黑体;font-size:1.00001em}
		.st25 {font-family:黑体;font-size:1em}
		.st26 {fill:#d8d8d8;stroke:#3b3a3e;stroke-dasharray:0,3;stroke-linecap:round;stroke-linejoin:round;stroke-width:1}
		.st27 {fill:#e5e1f4;stroke:#e5e1f4;stroke-dasharray:7,5;stroke-linecap:round;stroke-linejoin:round;stroke-width:1}
		.st28 {fill:none;fill-rule:evenodd;font-size:12px;overflow:visible;stroke-linecap:square;stroke-miterlimit:3}
	]]>
	</style>

	<g v:mID="0" v:index="1" v:groupContext="foregroundPage">
		<title>页-1</title>
		<v:pageProperties v:drawingScale="0.0393701" v:pageScale="0.0393701" v:drawingUnits="24" v:shadowOffsetX="8.50394"
				v:shadowOffsetY="-8.50394"/>
		<g id="shape70-1" v:mID="70" v:groupContext="shape" transform="translate(0.880081,-1.09947)">
			<title>矩形.25</title>
			<v:userDefs>
				<v:ud v:nameU="visVersion" v:val="VT0(14):26"/>
			</v:userDefs>
			<rect x="0" y="2.29891" width="878.74" height="589.606" rx="9" ry="9" class="st1"/>
		</g>
		<g id="shape71-3" v:mID="71" v:groupContext="shape" transform="translate(68.3585,-12.9534)">
			<title>矩形</title>
			<v:userDefs>
				<v:ud v:nameU="visVersion" v:val="VT0(14):26"/>
			</v:userDefs>
			<rect x="0" y="535.212" width="797.089" height="56.6929" rx="9" ry="9" class="st2"/>
		</g>
		<g id="shape72-5" v:mID="72" v:groupContext="shape" transform="translate(71.7052,-27.1267)">
			<title>工作表.72</title>
			<desc>硬件层</desc>
			<v:textBlock v:margins="rect(4,4,4,4)" v:tabSpace="42.5197"/>
			<v:textRect cx="35.1309" cy="577.732" width="70.27" height="28.3465"/>
			<rect x="0" y="563.559" width="70.2619" height="28.3465" rx="9" ry="9" class="st3"/>
			<text x="8.13" y="583.77" class="st4" v:langID="2052"><v:paragraph v:horizAlign="1"/><v:tabList/>硬件层</text>		</g>
		<g id="shape73-8" v:mID="73" v:groupContext="shape" transform="translate(219.148,-27.1267)">
			<title>矩形.3</title>
			<desc>CPU</desc>
			<v:userDefs>
				<v:ud v:nameU="visVersion" v:val="VT0(14):26"/>
			</v:userDefs>
			<v:textBlock v:margins="rect(4,4,4,4)" v:tabSpace="42.5197"/>
			<v:textRect cx="75.1181" cy="577.732" width="150.24" height="28.3465"/>
			<rect x="0" y="563.559" width="150.236" height="28.3465" rx="9" ry="9" class="st5"/>
			<text x="62.41" y="581.93" class="st6" v:langID="2052"><v:paragraph v:horizAlign="1"/><v:tabList/>CPU</text>		</g>
		<g id="shape74-11" v:mID="74" v:groupContext="shape" transform="translate(426.077,-27.1267)">
			<title>矩形.4</title>
			<desc>GPU</desc>
			<v:userDefs>
				<v:ud v:nameU="visVersion" v:val="VT0(14):26"/>
			</v:userDefs>
			<v:textBlock v:margins="rect(4,4,4,4)" v:tabSpace="42.5197"/>
			<v:textRect cx="75.1181" cy="577.732" width="150.24" height="28.3465"/>
			<rect x="0" y="563.559" width="150.236" height="28.3465" rx="9" ry="9" class="st5"/>
			<text x="61.57" y="581.93" class="st6" v:langID="2052"><v:paragraph v:horizAlign="1"/><v:tabList/>GPU</text>		</g>
		<g id="shape75-14" v:mID="75" v:groupContext="shape" transform="translate(68.3585,-80.9849)">
			<title>矩形.5</title>
			<v:userDefs>
				<v:ud v:nameU="visVersion" v:val="VT0(14):26"/>
			</v:userDefs>
			<rect x="0" y="535.212" width="797.089" height="56.6929" rx="9" ry="9" class="st7"/>
		</g>
		<g id="shape76-16" v:mID="76" v:groupContext="shape" transform="translate(72.8847,-88.0716)">
			<title>工作表.76</title>
			<desc>基础层</desc>
			<v:textBlock v:margins="rect(4,4,4,4)" v:tabSpace="42.5197"/>
			<v:textRect cx="35.1309" cy="570.645" width="70.27" height="42.5197"/>
			<rect x="0" y="549.386" width="70.2619" height="42.5197" rx="9" ry="9" class="st3"/>
			<text x="8.13" y="576.68" class="st4" v:langID="2052"><v:paragraph v:horizAlign="1"/><v:tabList/>基础层</text>		</g>
		<g id="shape77-19" v:mID="77" v:groupContext="shape" transform="translate(178.471,-95.1582)">
			<title>矩形.7</title>
			<desc>数学库</desc>
			<v:userDefs>
				<v:ud v:nameU="visVersion" v:val="VT0(14):26"/>
			</v:userDefs>
			<v:textBlock v:margins="rect(4,4,4,4)" v:tabSpace="42.5197"/>
			<v:textRect cx="33.7323" cy="577.732" width="67.47" height="28.3465"/>
			<rect x="0" y="563.559" width="67.4646" height="28.3465" rx="9" ry="9" class="st8"/>
			<text x="12.73" y="582.43" class="st9" v:langID="2052"><v:paragraph v:horizAlign="1"/><v:tabList/>数学库</text>		</g>
		<g id="shape78-22" v:mID="78" v:groupContext="shape" transform="translate(260.675,-95.1582)">
			<title>矩形.8</title>
			<desc>异构数据接口</desc>
			<v:userDefs>
				<v:ud v:nameU="visVersion" v:val="VT0(14):26"/>
			</v:userDefs>
			<v:textBlock v:margins="rect(4,4,4,4)" v:tabSpace="42.5197"/>
			<v:textRect cx="52.4409" cy="577.732" width="104.89" height="28.3465"/>
			<rect x="0" y="563.559" width="104.882" height="28.3465" rx="9" ry="9" class="st8"/>
			<text x="10.44" y="582.43" class="st9" v:langID="2052"><v:paragraph v:horizAlign="1"/><v:tabList/>异构数据接口</text>		</g>
		<g id="shape79-25" v:mID="79" v:groupContext="shape" transform="translate(379.022,-95.1582)">
			<title>矩形.9</title>
			<desc>资源管理</desc>
			<v:userDefs>
				<v:ud v:nameU="visVersion" v:val="VT0(14):26"/>
			</v:userDefs>
			<v:textBlock v:margins="rect(4,4,4,4)" v:tabSpace="42.5197"/>
			<v:textRect cx="39.685" cy="577.732" width="79.38" height="28.3465"/>
			<rect x="0" y="563.559" width="79.3701" height="28.3465" rx="9" ry="9" class="st8"/>
			<text x="11.69" y="582.43" class="st9" v:langID="2052"><v:paragraph v:horizAlign="1"/><v:tabList/>资源管理</text>		</g>
		<g id="shape80-28" v:mID="80" v:groupContext="shape" transform="translate(473.338,-95.1582)">
			<title>矩形.10</title>
			<desc>通信模块</desc>
			<v:userDefs>
				<v:ud v:nameU="visVersion" v:val="VT0(14):26"/>
			</v:userDefs>
			<v:textBlock v:margins="rect(4,4,4,4)" v:tabSpace="42.5197"/>
			<v:textRect cx="42.1871" cy="577.732" width="84.38" height="28.3465"/>
			<rect x="0" y="563.559" width="84.3743" height="28.3465" rx="9" ry="9" class="st8"/>
			<text x="14.19" y="582.43" class="st9" v:langID="2052"><v:paragraph v:horizAlign="1"/><v:tabList/>通信模块</text>		</g>
		<g id="shape81-31" v:mID="81" v:groupContext="shape" transform="translate(15.0533,-192.438)">
			<title>工作表.81</title>
			<desc>系统架构</desc>
			<v:textBlock v:margins="rect(4,4,4,4)" v:tabSpace="42.5197"/>
			<v:textRect cx="15.5906" cy="489.149" width="31.19" height="205.512"/>
			<rect x="0" y="386.393" width="31.1811" height="205.512" rx="9" ry="9" class="st3"/>
			<text x="4" y="442.04" class="st10" v:langID="2052"><v:paragraph v:horizAlign="1"/><v:tabList/>系<tspan x="4" dy="1.2em"
						class="st11">统</tspan><tspan x="4" dy="1.2em" class="st11">架</tspan><tspan x="4" dy="1.306em" class="st11">构</tspan></text>		</g>
		<g id="shape82-37" v:mID="82" v:groupContext="shape" transform="translate(68.1626,-520.355)">
			<title>矩形.27</title>
			<v:userDefs>
				<v:ud v:nameU="visVersion" v:val="VT0(14):26"/>
			</v:userDefs>
			<rect x="0" y="535.212" width="797.089" height="56.6929" rx="9" ry="9" class="st12"/>
		</g>
		<g id="shape83-39" v:mID="83" v:groupContext="shape" transform="translate(162.233,-527.442)">
			<title>矩形.19</title>
			<desc>增量模块开发框架 (GLFW)</desc>
			<v:userDefs>
				<v:ud v:nameU="visVersion" v:val="VT0(14):26"/>
			</v:userDefs>
			<v:textBlock v:margins="rect(4,4,4,4)" v:tabSpace="42.5197"/>
			<v:textRect cx="96.4888" cy="570.645" width="192.98" height="42.5197"/>
			<rect x="0" y="549.386" width="192.978" height="42.5197" rx="9" ry="9" class="st13"/>
			<text x="14.25" y="575.34" class="st9" v:langID="2052"><v:paragraph v:horizAlign="1"/><v:tabList/>增量模块开发框架<tspan
						class="st14"> </tspan><tspan class="st15" v:langID="1033">(</tspan><tspan class="st15">GLFW</tspan><tspan
						class="st15" v:langID="1033">)</tspan></text>		</g>
		<g id="shape84-46" v:mID="84" v:groupContext="shape" transform="translate(76.7728,-540.198)">
			<title>工作表.84</title>
			<desc>应用层</desc>
			<v:textBlock v:margins="rect(4,4,4,4)" v:tabSpace="42.5197"/>
			<v:textRect cx="35.1309" cy="583.401" width="70.27" height="17.0079"/>
			<rect x="0" y="574.897" width="70.2619" height="17.0079" rx="8.50394" ry="8.50394" class="st3"/>
			<text x="8.13" y="589.43" class="st16" v:langID="2052"><v:paragraph v:horizAlign="1"/><v:tabList/>应用层</text>		</g>
		<g id="shape85-49" v:mID="85" v:groupContext="shape" transform="translate(391.116,-527.442)">
			<title>矩形.28</title>
			<desc>交互设计框架 (QT)</desc>
			<v:userDefs>
				<v:ud v:nameU="visVersion" v:val="VT0(14):26"/>
			</v:userDefs>
			<v:textBlock v:margins="rect(4,4,4,4)" v:tabSpace="42.5197"/>
			<v:textRect cx="116.818" cy="570.645" width="233.64" height="42.5197"/>
			<rect x="0" y="549.386" width="233.637" height="42.5197" rx="9" ry="9" class="st13"/>
			<text x="59.08" y="575.25" class="st9" v:langID="2052"><v:paragraph v:horizAlign="1"/><v:tabList/>交互设计框架<tspan
						class="st15"> </tspan><tspan class="st15" v:langID="1033">(</tspan><tspan class="st15">QT</tspan><tspan
						class="st15" v:langID="1033">)</tspan></text>		</g>
		<g id="shape86-56" v:mID="86" v:groupContext="shape" transform="translate(654.531,-527.442)">
			<title>矩形.30</title>
			<desc>端云协同交互框架 (WT)</desc>
			<v:userDefs>
				<v:ud v:nameU="visVersion" v:val="VT0(14):26"/>
			</v:userDefs>
			<v:textBlock v:margins="rect(4,4,4,4)" v:tabSpace="42.5197"/>
			<v:textRect cx="96.4888" cy="570.645" width="192.98" height="42.5197"/>
			<rect x="0" y="549.386" width="192.978" height="42.5197" rx="9" ry="9" class="st13"/>
			<text x="23.19" y="575.34" class="st9" v:langID="2052"><v:paragraph v:horizAlign="1"/><v:tabList/>端云协同交互框架<tspan
						class="st14"> </tspan><tspan class="st15" v:langID="1033">(</tspan><tspan class="st15">WT</tspan><tspan
						class="st15" v:langID="1033">)</tspan></text>		</g>
		<g id="shape90-63" v:mID="90" v:groupContext="shape" transform="translate(638.675,-27.1267)">
			<title>矩形.61</title>
			<desc>数据存储</desc>
			<v:userDefs>
				<v:ud v:nameU="visVersion" v:val="VT0(14):26"/>
			</v:userDefs>
			<v:textBlock v:margins="rect(4,4,4,4)" v:tabSpace="42.5197"/>
			<v:textRect cx="75.1181" cy="577.732" width="150.24" height="28.3465"/>
			<rect x="0" y="563.559" width="150.236" height="28.3465" rx="9" ry="9" class="st5"/>
			<text x="47.12" y="582.43" class="st9" v:langID="2052"><v:paragraph v:horizAlign="1"/><v:tabList/>数据存储</text>		</g>
		<g id="shape92-66" v:mID="92" v:groupContext="shape" transform="translate(66.4556,-149.062)">
			<title>矩形.11</title>
			<v:userDefs>
				<v:ud v:nameU="visVersion" v:val="VT0(14):26"/>
			</v:userDefs>
			<rect x="0" y="299.937" width="797.089" height="291.969" rx="9" ry="9" class="st17"/>
		</g>
		<g id="shape93-68" v:mID="93" v:groupContext="shape" transform="translate(78.7292,-273.787)">
			<title>工作表.93</title>
			<desc>核心 技术层</desc>
			<v:textBlock v:margins="rect(4,4,4,4)" v:tabSpace="42.5197"/>
			<v:textRect cx="25.5118" cy="570.645" width="51.03" height="42.5197"/>
			<rect x="0" y="549.386" width="51.0236" height="42.5197" rx="9" ry="9" class="st3"/>
			<text x="7.51" y="553.81" class="st4" v:langID="2052"><v:paragraph v:horizAlign="1"/><v:tabList/>核心<v:newlineChar/><tspan
						x="7.51" dy="1.235em" class="st11">技术</tspan><tspan x="16.51" dy="1.306em" class="st11">层</tspan></text>		</g>
		<g id="group124-73" transform="translate(68.1626,-452.324)" v:mID="124" v:groupContext="group">
			<title>工作表.124</title>
			<g id="shape125-74" v:mID="125" v:groupContext="shape">
				<title>矩形.17</title>
				<v:userDefs>
					<v:ud v:nameU="visVersion" v:val="VT0(14):26"/>
				</v:userDefs>
				<rect x="0" y="535.212" width="797.089" height="56.6929" rx="9" ry="9" class="st18"/>
			</g>
			<g id="shape126-76" v:mID="126" v:groupContext="shape" transform="translate(10.6787,-17.0079)">
				<title>工作表.126</title>
				<desc>任务层</desc>
				<v:textBlock v:margins="rect(4,4,4,4)" v:tabSpace="42.5197"/>
				<v:textRect cx="31.5332" cy="577.732" width="63.07" height="28.3465"/>
				<rect x="0" y="563.559" width="63.0663" height="28.3465" rx="9" ry="9" class="st3"/>
				<text x="4.53" y="583.77" class="st4" v:langID="2052"><v:paragraph v:horizAlign="1"/><v:tabList/>任务层</text>			</g>
			<g id="group127-79" transform="translate(70.0737,-4.96063)" v:mID="127" v:groupContext="group">
				<title>工作表.127</title>
				<g id="shape128-80" v:mID="128" v:groupContext="shape" transform="translate(23.4832,-2.83465)">
					<title>矩形.19</title>
					<desc>场景管理</desc>
					<v:userDefs>
						<v:ud v:nameU="visVersion" v:val="VT0(14):26"/>
					</v:userDefs>
					<v:textBlock v:margins="rect(4,4,4,4)" v:tabSpace="42.5197"/>
					<v:textRect cx="68.3992" cy="572.771" width="136.8" height="38.2677"/>
					<rect x="0" y="553.637" width="136.798" height="38.2677" rx="9" ry="9" class="st7"/>
					<text x="40.4" y="577.46" class="st9" v:langID="2052"><v:paragraph v:horizAlign="1"/><v:tabList/>场景管理</text>				</g>
				<g id="shape129-83" v:mID="129" v:groupContext="shape" transform="translate(188.628,-3.02792)">
					<title>矩形.20</title>
					<desc>模块管理</desc>
					<v:userDefs>
						<v:ud v:nameU="visVersion" v:val="VT0(14):26"/>
					</v:userDefs>
					<v:textBlock v:margins="rect(4,4,4,4)" v:tabSpace="42.5197"/>
					<v:textRect cx="66.5728" cy="572.771" width="133.15" height="38.2677"/>
					<rect x="0" y="553.637" width="133.146" height="38.2677" rx="9" ry="9" class="st7"/>
					<text x="38.57" y="577.46" class="st9" v:langID="2052"><v:paragraph v:horizAlign="1"/><v:tabList/>模块管理</text>				</g>
				<g id="shape130-86" v:mID="130" v:groupContext="shape" transform="translate(358.707,-3.02792)">
					<title>矩形.21</title>
					<desc>任务管线</desc>
					<v:userDefs>
						<v:ud v:nameU="visVersion" v:val="VT0(14):26"/>
					</v:userDefs>
					<v:textBlock v:margins="rect(4,4,4,4)" v:tabSpace="42.5197"/>
					<v:textRect cx="75.1181" cy="572.771" width="150.24" height="38.2677"/>
					<rect x="0" y="553.637" width="150.236" height="38.2677" rx="9" ry="9" class="st7"/>
					<text x="47.12" y="577.46" class="st19" v:langID="2052"><v:paragraph v:horizAlign="1"/><v:tabList/>任务管线</text>				</g>
				<g id="shape131-89" v:mID="131" v:groupContext="shape" transform="translate(544.529,-2.83465)">
					<title>矩形.22</title>
					<desc>数据管理</desc>
					<v:userDefs>
						<v:ud v:nameU="visVersion" v:val="VT0(14):26"/>
					</v:userDefs>
					<v:textBlock v:margins="rect(4,4,4,4)" v:tabSpace="42.5197"/>
					<v:textRect cx="75.1181" cy="572.771" width="150.24" height="38.2677"/>
					<rect x="0" y="553.637" width="150.236" height="38.2677" rx="9" ry="9" class="st7"/>
					<text x="47.12" y="577.46" class="st9" v:langID="2052"><v:paragraph v:horizAlign="1"/><v:tabList/>数据管理</text>				</g>
			</g>
		</g>
		<g id="shape133-92" v:mID="133" v:groupContext="shape" transform="translate(571.8,-95.1582)">
			<title>矩形.74</title>
			<desc>图形渲染接口</desc>
			<v:userDefs>
				<v:ud v:nameU="visVersion" v:val="VT0(14):26"/>
			</v:userDefs>
			<v:textBlock v:margins="rect(4,4,4,4)" v:tabSpace="42.5197"/>
			<v:textRect cx="52.4409" cy="577.732" width="104.89" height="28.3465"/>
			<rect x="0" y="563.559" width="104.882" height="28.3465" rx="9" ry="9" class="st8"/>
			<text x="10.44" y="582.43" class="st9" v:langID="2052"><v:paragraph v:horizAlign="1"/><v:tabList/>图形渲染接口</text>		</g>
		<g id="shape162-95" v:mID="162" v:groupContext="shape" transform="translate(142.612,-156.858)">
			<title>矩形.162</title>
			<v:userDefs>
				<v:ud v:nameU="visVersion" v:val="VT0(15):26"/>
			</v:userDefs>
			<rect x="0" y="535.212" width="699.936" height="56.6929" rx="9" ry="9" class="st20"/>
		</g>
		<g id="shape163-97" v:mID="163" v:groupContext="shape" transform="translate(148.171,-163.944)">
			<title>矩形.139</title>
			<desc>碰撞检测模块</desc>
			<v:userDefs>
				<v:ud v:nameU="visVersion" v:val="VT0(14):26"/>
			</v:userDefs>
			<v:textBlock v:margins="rect(4,4,4,4)" v:tabSpace="42.5197"/>
			<v:textRect cx="35.3425" cy="570.645" width="70.69" height="42.5197"/>
			<rect x="0" y="549.386" width="70.685" height="42.5197" rx="9" ry="9" class="st21"/>
			<text x="7.34" y="565.46" class="st9" v:langID="2052"><v:paragraph v:horizAlign="1"/><v:tabList/>碰撞检测<tspan x="21.34"
						dy="1.306em" class="st11">模块</tspan></text>		</g>
		<g id="shape164-101" v:mID="164" v:groupContext="shape" transform="translate(233.345,-163.944)">
			<title>矩形.140</title>
			<desc>拓扑生成模块</desc>
			<v:userDefs>
				<v:ud v:nameU="visVersion" v:val="VT0(14):26"/>
			</v:userDefs>
			<v:textBlock v:margins="rect(4,4,4,4)" v:tabSpace="42.5197"/>
			<v:textRect cx="35.3425" cy="570.645" width="70.69" height="42.5197"/>
			<rect x="0" y="549.386" width="70.685" height="42.5197" rx="9" ry="9" class="st21"/>
			<text x="7.34" y="565.46" class="st9" v:langID="2052"><v:paragraph v:horizAlign="1"/><v:tabList/>拓扑生成<tspan x="21.34"
						dy="1.306em" class="st11">模块</tspan></text>		</g>
		<g id="shape165-105" v:mID="165" v:groupContext="shape" transform="translate(318.518,-163.944)">
			<title>矩形.141</title>
			<desc>拓扑映射模块</desc>
			<v:userDefs>
				<v:ud v:nameU="visVersion" v:val="VT0(14):26"/>
			</v:userDefs>
			<v:textBlock v:margins="rect(4,4,4,4)" v:tabSpace="42.5197"/>
			<v:textRect cx="35.3425" cy="570.645" width="70.69" height="42.5197"/>
			<rect x="0" y="549.386" width="70.685" height="42.5197" rx="9" ry="9" class="st21"/>
			<text x="7.34" y="565.46" class="st9" v:langID="2052"><v:paragraph v:horizAlign="1"/><v:tabList/>拓扑映射<tspan x="21.34"
						dy="1.306em" class="st11">模块</tspan></text>		</g>
		<g id="shape166-109" v:mID="166" v:groupContext="shape" transform="translate(484.436,-163.944)">
			<title>矩形.142</title>
			<desc>基础功能模块</desc>
			<v:userDefs>
				<v:ud v:nameU="visVersion" v:val="VT0(14):26"/>
			</v:userDefs>
			<v:textBlock v:margins="rect(4,4,4,4)" v:tabSpace="42.5197"/>
			<v:textRect cx="35.3425" cy="570.645" width="70.69" height="42.5197"/>
			<rect x="0" y="549.386" width="70.685" height="42.5197" rx="9" ry="9" class="st21"/>
			<text x="7.34" y="565.46" class="st9" v:langID="2052"><v:paragraph v:horizAlign="1"/><v:tabList/>基础功能<tspan x="21.34"
						dy="1.306em" class="st11">模块</tspan></text>		</g>
		<g id="shape167-113" v:mID="167" v:groupContext="shape" transform="translate(569.609,-163.944)">
			<title>矩形.143</title>
			<desc>输入输出模块</desc>
			<v:userDefs>
				<v:ud v:nameU="visVersion" v:val="VT0(14):26"/>
			</v:userDefs>
			<v:textBlock v:margins="rect(4,4,4,4)" v:tabSpace="42.5197"/>
			<v:textRect cx="35.3425" cy="570.645" width="70.69" height="42.5197"/>
			<rect x="0" y="549.386" width="70.685" height="42.5197" rx="9" ry="9" class="st21"/>
			<text x="7.34" y="565.46" class="st9" v:langID="2052"><v:paragraph v:horizAlign="1"/><v:tabList/>输入输出<tspan x="21.34"
						dy="1.306em" class="st11">模块</tspan></text>		</g>
		<g id="shape168-117" v:mID="168" v:groupContext="shape" transform="translate(664.543,-163.944)">
			<title>矩形.144</title>
			<desc>可视化 模块</desc>
			<v:userDefs>
				<v:ud v:nameU="visVersion" v:val="VT0(14):26"/>
			</v:userDefs>
			<v:textBlock v:margins="rect(4,4,4,4)" v:tabSpace="42.5197"/>
			<v:textRect cx="35.3425" cy="570.645" width="70.69" height="42.5197"/>
			<rect x="0" y="549.386" width="70.685" height="42.5197" rx="9" ry="9" class="st21"/>
			<text x="14.34" y="565.95" class="st9" v:langID="2052"><v:paragraph v:horizAlign="1"/><v:tabList/>可视化<v:newlineChar/><tspan
						x="21.34" dy="1.341em" class="st11">模块</tspan></text>		</g>
		<g id="shape169-121" v:mID="169" v:groupContext="shape" transform="translate(399.262,-163.944)">
			<title>矩形.145</title>
			<desc>通用计算模块</desc>
			<v:userDefs>
				<v:ud v:nameU="visVersion" v:val="VT0(14):26"/>
			</v:userDefs>
			<v:textBlock v:margins="rect(4,4,4,4)" v:tabSpace="42.5197"/>
			<v:textRect cx="35.3425" cy="570.645" width="70.69" height="42.5197"/>
			<rect x="0" y="549.386" width="70.685" height="42.5197" rx="9" ry="9" class="st21"/>
			<text x="7.34" y="565.46" class="st9" v:langID="2052"><v:paragraph v:horizAlign="1"/><v:tabList/>通用计算<tspan x="21.34"
						dy="1.306em" class="st11">模块</tspan></text>		</g>
		<g id="shape178-125" v:mID="178" v:groupContext="shape" transform="translate(648.685,-274.673)">
			<title>矩形.178</title>
			<desc>交互算法库</desc>
			<v:userDefs>
				<v:ud v:nameU="visVersion" v:val="VT0(14):26"/>
			</v:userDefs>
			<v:textBlock v:margins="rect(4,4,4,4)" v:tabSpace="42.5197"/>
			<v:textRect cx="96.4888" cy="513.952" width="192.98" height="155.906"/>
			<rect x="0" y="436" width="192.978" height="155.906" rx="9" ry="9" class="st22"/>
			<text x="61.49" y="459.85" class="st9" v:langID="2052"><v:paragraph v:horizAlign="1"/><v:tabList/>交互算法库<v:newlineChar/><v:newlineChar/><v:newlineChar/><v:newlineChar/><v:newlineChar/><v:newlineChar/><v:newlineChar/></text>		</g>
		<g id="shape179-128" v:mID="179" v:groupContext="shape" transform="translate(657.41,-366.277)">
			<title>矩形.179</title>
			<desc>鼠标</desc>
			<v:userDefs>
				<v:ud v:nameU="visVersion" v:val="VT0(15):26"/>
			</v:userDefs>
			<v:textBlock v:margins="rect(4,4,4,4)" v:tabSpace="42.5197"/>
			<v:textRect cx="39.685" cy="578.062" width="79.38" height="27.6872"/>
			<rect x="0" y="564.218" width="79.3701" height="27.6872" rx="9" ry="9" class="st23"/>
			<text x="27.68" y="582.08" class="st24" v:langID="2052"><v:paragraph v:horizAlign="1"/><v:tabList/>鼠标</text>		</g>
		<g id="shape180-131" v:mID="180" v:groupContext="shape" transform="translate(752.489,-366.277)">
			<title>矩形.180</title>
			<desc>键盘</desc>
			<v:userDefs>
				<v:ud v:nameU="visVersion" v:val="VT0(15):26"/>
			</v:userDefs>
			<v:textBlock v:margins="rect(4,4,4,4)" v:tabSpace="42.5197"/>
			<v:textRect cx="39.685" cy="578.062" width="79.38" height="27.6872"/>
			<rect x="0" y="564.218" width="79.3701" height="27.6872" rx="9" ry="9" class="st23"/>
			<text x="27.68" y="582.08" class="st24" v:langID="2052"><v:paragraph v:horizAlign="1"/><v:tabList/>键盘</text>		</g>
		<g id="shape181-134" v:mID="181" v:groupContext="shape" transform="translate(657.41,-327.799)">
			<title>矩形.181</title>
			<desc>运动控制算法</desc>
			<v:userDefs>
				<v:ud v:nameU="visVersion" v:val="VT0(15):26"/>
			</v:userDefs>
			<v:textBlock v:margins="rect(4,4,4,4)" v:tabSpace="42.5197"/>
			<v:textRect cx="87.5197" cy="578.062" width="175.04" height="27.6872"/>
			<rect x="0" y="564.218" width="175.039" height="27.6872" rx="9" ry="9" class="st23"/>
			<text x="51.52" y="582.08" class="st24" v:langID="2052"><v:paragraph v:horizAlign="1"/><v:tabList/>运动控制算法</text>		</g>
		<g id="shape182-137" v:mID="182" v:groupContext="shape" transform="translate(657.41,-291.01)">
			<title>矩形.182</title>
			<desc>其他外设</desc>
			<v:userDefs>
				<v:ud v:nameU="visVersion" v:val="VT0(15):26"/>
			</v:userDefs>
			<v:textBlock v:margins="rect(4,4,4,4)" v:tabSpace="42.5197"/>
			<v:textRect cx="87.5197" cy="578.062" width="175.04" height="27.6872"/>
			<rect x="0" y="564.218" width="175.039" height="27.6872" rx="9" ry="9" class="st23"/>
			<text x="63.52" y="582.08" class="st24" v:langID="2052"><v:paragraph v:horizAlign="1"/><v:tabList/>其他外设</text>		</g>
		<g id="shape184-140" v:mID="184" v:groupContext="shape" transform="translate(693.428,-95.1582)">
			<title>矩形.184</title>
			<desc>IO库</desc>
			<v:userDefs>
				<v:ud v:nameU="visVersion" v:val="VT0(14):26"/>
			</v:userDefs>
			<v:textBlock v:margins="rect(4,4,4,4)" v:tabSpace="42.5197"/>
			<v:textRect cx="25.5118" cy="577.732" width="51.03" height="28.3465"/>
			<rect x="0" y="563.559" width="51.0236" height="28.3465" rx="9" ry="9" class="st8"/>
			<text x="11.61" y="582.43" class="st6" v:langID="2052"><v:paragraph v:horizAlign="1"/><v:tabList/>IO<tspan class="st25">库</tspan></text>		</g>
		<g id="shape185-144" v:mID="185" v:groupContext="shape" transform="translate(757.503,-163.944)">
			<title>矩形.185</title>
			<desc>交互模块</desc>
			<v:userDefs>
				<v:ud v:nameU="visVersion" v:val="VT0(14):26"/>
			</v:userDefs>
			<v:textBlock v:margins="rect(4,4,4,4)" v:tabSpace="42.5197"/>
			<v:textRect cx="35.3425" cy="570.645" width="70.69" height="42.5197"/>
			<rect x="0" y="549.386" width="70.685" height="42.5197" rx="9" ry="9" class="st21"/>
			<text x="7.34" y="575.34" class="st9" v:langID="2052"><v:paragraph v:horizAlign="1"/><v:tabList/>交互模块</text>		</g>
		<g id="shape190-147" v:mID="190" v:groupContext="shape" transform="translate(142.612,-230.948)">
			<title>矩形.190</title>
			<desc>功能拓展与集成</desc>
			<v:userDefs>
				<v:ud v:nameU="visVersion" v:val="VT0(14):26"/>
			</v:userDefs>
			<v:textBlock v:margins="rect(4,4,4,4)" v:tabSpace="42.5197"/>
			<v:textRect cx="349.968" cy="578.062" width="699.94" height="27.6872"/>
			<rect x="0" y="564.218" width="699.936" height="27.6872" rx="9" ry="9" class="st5"/>
			<text x="300.97" y="582.75" class="st9" v:langID="2052"><v:paragraph v:horizAlign="1"/><v:tabList/>功能拓展与集成</text>		</g>
		<g id="group193-150" transform="translate(142.612,-275.158)" v:mID="193" v:groupContext="group">
			<title>工作表.193</title>
			<g id="shape94-151" v:mID="94" v:groupContext="shape">
				<title>矩形.13</title>
				<desc>仿真算法库</desc>
				<v:userDefs>
					<v:ud v:nameU="visVersion" v:val="VT0(14):26"/>
				</v:userDefs>
				<v:textBlock v:margins="rect(4,4,4,4)" v:tabSpace="42.5197"/>
				<v:textRect cx="115.9" cy="513.952" width="231.81" height="155.906"/>
				<rect x="0" y="436" width="231.801" height="155.906" rx="9" ry="9" class="st22"/>
				<text x="80.9" y="459.85" class="st9" v:langID="2052"><v:paragraph v:horizAlign="1"/><v:tabList/>仿真算法库<v:newlineChar/><v:newlineChar/><v:newlineChar/><v:newlineChar/><v:newlineChar/><v:newlineChar/><v:newlineChar/></text>			</g>
			<g id="shape150-154" v:mID="150" v:groupContext="shape" transform="translate(9.53127,-91.4138)">
				<title>矩形.40</title>
				<desc>有限元法</desc>
				<v:userDefs>
					<v:ud v:nameU="visVersion" v:val="VT0(15):26"/>
				</v:userDefs>
				<v:textBlock v:margins="rect(4,4,4,4)" v:tabSpace="42.5197"/>
				<v:textRect cx="45.3923" cy="578.062" width="90.79" height="27.6872"/>
				<rect x="0" y="564.218" width="90.7846" height="27.6872" rx="9" ry="9" class="st23"/>
				<text x="21.39" y="582.08" class="st24" v:langID="2052"><v:paragraph v:horizAlign="1"/><v:tabList/>有限元法</text>			</g>
			<g id="shape151-157" v:mID="151" v:groupContext="shape" transform="translate(119.776,-91.4138)">
				<title>矩形.151</title>
				<desc>光滑粒子动力学</desc>
				<v:userDefs>
					<v:ud v:nameU="visVersion" v:val="VT0(15):26"/>
				</v:userDefs>
				<v:textBlock v:margins="rect(4,4,4,4)" v:tabSpace="42.5197"/>
				<v:textRect cx="49.1496" cy="578.062" width="98.3" height="27.6872"/>
				<rect x="0" y="564.218" width="98.2992" height="27.6872" rx="9" ry="9" class="st23"/>
				<text x="7.15" y="582.08" class="st24" v:langID="2052"><v:paragraph v:horizAlign="1"/><v:tabList/>光滑粒子动力学</text>			</g>
			<g id="shape152-160" v:mID="152" v:groupContext="shape" transform="translate(9.53127,-55.6006)">
				<title>矩形.152</title>
				<desc>近场动力学</desc>
				<v:userDefs>
					<v:ud v:nameU="visVersion" v:val="VT0(15):26"/>
				</v:userDefs>
				<v:textBlock v:margins="rect(4,4,4,4)" v:tabSpace="42.5197"/>
				<v:textRect cx="45.3923" cy="578.062" width="90.79" height="27.6872"/>
				<rect x="0" y="564.218" width="90.7846" height="27.6872" rx="9" ry="9" class="st23"/>
				<text x="15.39" y="582.08" class="st24" v:langID="2052"><v:paragraph v:horizAlign="1"/><v:tabList/>近场动力学</text>			</g>
			<g id="shape153-163" v:mID="153" v:groupContext="shape" transform="translate(119.776,-55.6006)">
				<title>矩形.153</title>
				<desc>近场动力学</desc>
				<v:userDefs>
					<v:ud v:nameU="visVersion" v:val="VT0(15):26"/>
				</v:userDefs>
				<v:textBlock v:margins="rect(4,4,4,4)" v:tabSpace="42.5197"/>
				<v:textRect cx="49.1496" cy="578.062" width="98.3" height="27.6872"/>
				<rect x="0" y="564.218" width="98.2992" height="27.6872" rx="9" ry="9" class="st23"/>
				<text x="19.15" y="582.08" class="st24" v:langID="2052"><v:paragraph v:horizAlign="1"/><v:tabList/>近场动力学</text>			</g>
			<g id="shape154-166" v:mID="154" v:groupContext="shape" transform="translate(10.2469,-18.4206)">
				<title>矩形.154</title>
				<desc>有限体积法</desc>
				<v:userDefs>
					<v:ud v:nameU="visVersion" v:val="VT0(15):26"/>
				</v:userDefs>
				<v:textBlock v:margins="rect(4,4,4,4)" v:tabSpace="42.5197"/>
				<v:textRect cx="45.3923" cy="578.062" width="90.79" height="27.6872"/>
				<rect x="0" y="564.218" width="90.7846" height="27.6872" rx="9" ry="9" class="st23"/>
				<text x="15.39" y="582.08" class="st24" v:langID="2052"><v:paragraph v:horizAlign="1"/><v:tabList/>有限体积法</text>			</g>
			<g id="shape157-169" v:mID="157" v:groupContext="shape" transform="translate(119.776,-18.4206)">
				<title>矩形.157</title>
				<desc>碰撞接触算法</desc>
				<v:userDefs>
					<v:ud v:nameU="visVersion" v:val="VT0(15):26"/>
				</v:userDefs>
				<v:textBlock v:margins="rect(4,4,4,4)" v:tabSpace="42.5197"/>
				<v:textRect cx="49.1496" cy="578.062" width="98.3" height="27.6872"/>
				<rect x="0" y="564.218" width="98.2992" height="27.6872" rx="9" ry="9" class="st23"/>
				<text x="13.15" y="582.08" class="st24" v:langID="2052"><v:paragraph v:horizAlign="1"/><v:tabList/>碰撞接触算法</text>			</g>
		</g>
		<g id="group194-172" transform="translate(394.298,-275.158)" v:mID="194" v:groupContext="group">
			<title>工作表.194</title>
			<g id="shape146-173" v:mID="146" v:groupContext="shape">
				<title>矩形.146</title>
				<desc>实时渲染算法库</desc>
				<v:userDefs>
					<v:ud v:nameU="visVersion" v:val="VT0(14):26"/>
				</v:userDefs>
				<v:textBlock v:margins="rect(4,4,4,4)" v:tabSpace="42.5197"/>
				<v:textRect cx="116.818" cy="513.952" width="233.64" height="155.906"/>
				<rect x="0" y="436" width="233.637" height="155.906" rx="9" ry="9" class="st22"/>
				<text x="67.82" y="459.85" class="st9" v:langID="2052"><v:paragraph v:horizAlign="1"/><v:tabList/>实时渲染算法库<v:newlineChar/><v:newlineChar/><v:newlineChar/><v:newlineChar/><v:newlineChar/><v:newlineChar/><v:newlineChar/></text>			</g>
			<g id="shape158-176" v:mID="158" v:groupContext="shape" transform="translate(5.66929,-11.0065)">
				<title>矩形.158</title>
				<desc>内置渲染器</desc>
				<v:userDefs>
					<v:ud v:nameU="visVersion" v:val="VT0(15):26"/>
				</v:userDefs>
				<v:textBlock v:margins="rect(4,4,4,4)" v:tabSpace="42.5197"/>
				<v:textRect cx="52.4409" cy="537.858" width="104.89" height="108.094"/>
				<rect x="0" y="483.811" width="104.882" height="108.094" rx="9" ry="9" class="st23"/>
				<text x="22.44" y="498.68" class="st24" v:langID="2052"><v:paragraph v:horizAlign="1"/><v:tabList/>内置渲染器<v:newlineChar/><v:newlineChar/><v:newlineChar/><v:newlineChar/><v:newlineChar/><v:newlineChar/></text>			</g>
			<g id="shape159-179" v:mID="159" v:groupContext="shape" transform="translate(123.307,-11.6682)">
				<title>矩形.159</title>
				<desc>第三方渲染器</desc>
				<v:userDefs>
					<v:ud v:nameU="visVersion" v:val="VT0(15):26"/>
				</v:userDefs>
				<v:textBlock v:margins="rect(4,4,4,4)" v:tabSpace="42.5197"/>
				<v:textRect cx="52.4409" cy="538.189" width="104.89" height="107.433"/>
				<rect x="0" y="484.472" width="104.882" height="107.433" rx="9" ry="9" class="st23"/>
				<text x="16.44" y="499.01" class="st24" v:langID="2052"><v:paragraph v:horizAlign="1"/><v:tabList/>第三方渲染器<v:newlineChar/><v:newlineChar/><v:newlineChar/><v:newlineChar/><v:newlineChar/><v:newlineChar/></text>			</g>
			<g id="shape171-182" v:mID="171" v:groupContext="shape" transform="translate(12.7559,-65.1128)">
				<title>矩形.171</title>
				<desc>点云渲染</desc>
				<v:userDefs>
					<v:ud v:nameU="visVersion" v:val="VT0(15):26"/>
				</v:userDefs>
				<v:textBlock v:margins="rect(4,4,4,4)" v:tabSpace="42.5197"/>
				<v:textRect cx="45.3543" cy="579.932" width="90.71" height="23.9457"/>
				<rect x="0" y="567.959" width="90.7087" height="23.9457" rx="9" ry="9" class="st26"/>
				<text x="21.35" y="583.95" class="st24" v:langID="2052"><v:paragraph v:horizAlign="1"/><v:tabList/>点云渲染</text>			</g>
			<g id="shape172-185" v:mID="172" v:groupContext="shape" transform="translate(12.7559,-43.1999)">
				<title>矩形.172</title>
				<desc>网格渲染</desc>
				<v:userDefs>
					<v:ud v:nameU="visVersion" v:val="VT0(15):26"/>
				</v:userDefs>
				<v:textBlock v:margins="rect(4,4,4,4)" v:tabSpace="42.5197"/>
				<v:textRect cx="45.3543" cy="579.932" width="90.71" height="23.9457"/>
				<rect x="0" y="567.959" width="90.7087" height="23.9457" rx="9" ry="9" class="st26"/>
				<text x="21.35" y="583.95" class="st24" v:langID="2052"><v:paragraph v:horizAlign="1"/><v:tabList/>网格渲染</text>			</g>
			<g id="shape173-188" v:mID="173" v:groupContext="shape" transform="translate(12.7559,-19.8884)">
				<title>矩形.173</title>
				<desc>体渲染</desc>
				<v:userDefs>
					<v:ud v:nameU="visVersion" v:val="VT0(15):26"/>
				</v:userDefs>
				<v:textBlock v:margins="rect(4,4,4,4)" v:tabSpace="42.5197"/>
				<v:textRect cx="45.3543" cy="579.932" width="90.71" height="23.9457"/>
				<rect x="0" y="567.959" width="90.7087" height="23.9457" rx="9" ry="9" class="st26"/>
				<text x="27.35" y="583.95" class="st24" v:langID="2052"><v:paragraph v:horizAlign="1"/><v:tabList/>体渲染</text>			</g>
			<g id="shape175-191" v:mID="175" v:groupContext="shape" transform="translate(131.811,-65.1128)">
				<title>矩形.175</title>
				<desc>点云渲染</desc>
				<v:userDefs>
					<v:ud v:nameU="visVersion" v:val="VT0(15):26"/>
				</v:userDefs>
				<v:textBlock v:margins="rect(4,4,4,4)" v:tabSpace="42.5197"/>
				<v:textRect cx="45.3543" cy="579.932" width="90.71" height="23.9457"/>
				<rect x="0" y="567.959" width="90.7087" height="23.9457" rx="9" ry="9" class="st26"/>
				<text x="21.35" y="583.95" class="st24" v:langID="2052"><v:paragraph v:horizAlign="1"/><v:tabList/>点云渲染</text>			</g>
			<g id="shape176-194" v:mID="176" v:groupContext="shape" transform="translate(131.811,-43.1999)">
				<title>矩形.176</title>
				<desc>网格渲染</desc>
				<v:userDefs>
					<v:ud v:nameU="visVersion" v:val="VT0(15):26"/>
				</v:userDefs>
				<v:textBlock v:margins="rect(4,4,4,4)" v:tabSpace="42.5197"/>
				<v:textRect cx="45.3543" cy="579.932" width="90.71" height="23.9457"/>
				<rect x="0" y="567.959" width="90.7087" height="23.9457" rx="9" ry="9" class="st26"/>
				<text x="21.35" y="583.95" class="st24" v:langID="2052"><v:paragraph v:horizAlign="1"/><v:tabList/>网格渲染</text>			</g>
			<g id="shape177-197" v:mID="177" v:groupContext="shape" transform="translate(131.811,-19.8884)">
				<title>矩形.177</title>
				<desc>体渲染</desc>
				<v:userDefs>
					<v:ud v:nameU="visVersion" v:val="VT0(15):26"/>
				</v:userDefs>
				<v:textBlock v:margins="rect(4,4,4,4)" v:tabSpace="42.5197"/>
				<v:textRect cx="45.3543" cy="579.932" width="90.71" height="23.9457"/>
				<rect x="0" y="567.959" width="90.7087" height="23.9457" rx="9" ry="9" class="st26"/>
				<text x="27.35" y="583.95" class="st24" v:langID="2052"><v:paragraph v:horizAlign="1"/><v:tabList/>体渲染</text>			</g>
		</g>
		<g id="shape196-200" v:mID="196" v:groupContext="shape" transform="translate(-300.696,331.802) rotate(-90)">
			<title>箭头总汇</title>
			<v:userDefs>
				<v:ud v:nameU="visVersion" v:prompt="" v:val="VT0(15):26"/>
			</v:userDefs>
			<path d="M3.58 591.91 L3.58 591.91 A4.5 4.5 -180 0 0 7.73 589.15 L12.4 578.06 A4.5 4.5 -180 0 0 12.4 574.57 L7.73 563.48
						 A4.5 4.5 -180 0 0 3.58 560.72 L3.58 560.72 A3.58058 3.58058 -180 0 0 0 564.3 L0 588.32 A3.58058 3.58058
						 -180 0 0 3.58 591.91 Z" class="st27"/>
		</g>
		<g id="shape197-202" v:mID="197" v:groupContext="shape" transform="translate(-58.3335,331.802) rotate(-90)">
			<title>箭头总汇.197</title>
			<v:userDefs>
				<v:ud v:nameU="visVersion" v:prompt="" v:val="VT0(15):26"/>
			</v:userDefs>
			<path d="M4.2 591.91 L4.2 591.91 A4.5 4.5 -180 0 0 8.29 589.27 L13.34 578.18 A4.5 4.5 -180 0 0 13.34 574.45 L8.29 563.36
						 A4.5 4.5 -180 0 0 4.2 560.72 L4.2 560.72 A4.19681 4.19681 -180 0 0 0 564.92 L0 587.71 A4.19681 4.19681 -180
						 0 0 4.2 591.91 Z" class="st27"/>
		</g>
		<g id="shape198-204" v:mID="198" v:groupContext="shape" transform="translate(168.438,332.003) rotate(-90)">
			<title>箭头总汇.198</title>
			<v:userDefs>
				<v:ud v:nameU="visVersion" v:prompt="" v:val="VT0(15):26"/>
			</v:userDefs>
			<path d="M4.01 591.91 L4.01 591.91 A4.5 4.5 -180 0 0 8.12 589.23 L13.05 578.14 A4.5 4.5 -180 0 0 13.05 574.49 L8.12 563.4
						 A4.5 4.5 -180 0 0 4.01 560.72 L4.01 560.72 A4.00667 4.00667 -180 0 0 0 564.73 L0 587.9 A4.00667 4.00667
						 -180 0 0 4.01 591.91 Z" class="st27"/>
		</g>
		<g id="shape201-206" v:mID="201" v:groupContext="shape" transform="translate(-39.4122,376.79) rotate(-90)">
			<title>箭头总汇.201</title>
			<v:userDefs>
				<v:ud v:nameU="visVersion" v:prompt="" v:val="VT0(15):26"/>
			</v:userDefs>
			<path d="M3.74 591.91 L3.74 591.91 A4.5 4.5 -180 0 0 8.14 588.37 L14.52 559.13 A4.5 4.5 -180 0 0 14.52 557.21 L8.14 527.98
						 A4.5 4.5 -180 0 0 3.74 524.44 L3.74 524.44 A3.74401 3.74401 -180 0 0 0 528.18 L0 588.16 A3.74401 3.74401
						 -180 0 0 3.74 591.91 Z" class="st27"/>
		</g>
		<g id="shape205-208" v:mID="205" v:groupContext="shape" transform="translate(762.083,-95.1582)">
			<title>矩形.205</title>
			<desc>碰撞算法库</desc>
			<v:userDefs>
				<v:ud v:nameU="visVersion" v:val="VT0(14):26"/>
			</v:userDefs>
			<v:textBlock v:margins="rect(4,4,4,4)" v:tabSpace="42.5197"/>
			<v:textRect cx="40.8396" cy="577.732" width="81.68" height="28.3465"/>
			<rect x="0" y="563.559" width="81.6793" height="28.3465" rx="9" ry="9" class="st8"/>
			<text x="5.84" y="582.43" class="st9" v:langID="2052"><v:paragraph v:horizAlign="1"/><v:tabList/>碰撞算法库</text>		</g>
	</g>
</svg>
